# xmcd CD database file
# Copyright (C) 1993-1996 Ti Kan
#
# Track frame offsets:
#	183
#	12305
#	32603
#	44193
#	64388
#	81598
#	93555
#	111705
#	129275
#	153773
#	171863
#	178448
#	201743
#	215278
#	231123
#	253068
#
# Disc length: 3609 seconds
#
# Revision: 1
# Processed by: cddbd v1.4b41PL1 Copyright (c) Steve Scherf et al.
# Submitted via: CDValet v3.01 - Copyright (c) 1997 Greg Leichner
#
DISCID=f50e1710
DTITLE=Lightnin' Hopkins - Lonesome Dog Blues
DYEAR=1900
DGENRE=
TTITLE0=Lonesome Dog Blues
TTITLE1=Glory Be
TTITLE2=Sometimes She Will
TTITLE3=Shine On Moon
TTITLE4=Santa
TTITLE5=Have You Ever Loved A Woman
TTITLE6=Shake That Thing
TTITLE7=I'm Leaving You Now
TTITLE8=Walk A Long Time
TTITLE9=Bring Me My Shotgun
TTITLE10=Just Pickin'
TTITLE11=Last Night
TTITLE12=Mojo Hand
TTITLE13=Coffee For Mama
TTITLE14=Awful Dreams
TTITLE15=Black Mare Trot
EXTD=
EXTT0=
EXTT1=
EXTT2=
EXTT3=
EXTT4=
EXTT5=
EXTT6=
EXTT7=
EXTT8=
EXTT9=
EXTT10=
EXTT11=
EXTT12=
EXTT13=
EXTT14=
EXTT15=
PLAYORDER=
